<?xml version="1.0" encoding="UTF-8" standalone="no"?>
<!-- Created with Inkscape (http://www.inkscape.org/) -->

<svg
   version="1.1"
   id="zp-logo-simple"
   width="200"
   height="199.99965"
   viewBox="0 0 200 199.99965"
   xml:space="preserve"
   xmlns:xlink="http://www.w3.org/1999/xlink"
   xmlns="http://www.w3.org/2000/svg"
   xmlns:svg="http://www.w3.org/2000/svg"><style>#layer2{display:none}</style><defs
     id="defs1"><linearGradient
       id="linearGradient10"><stop
         style="stop-color:#ff00b4;stop-opacity:1;"
         offset="0.20727272"
         id="stop9" /><stop
         style="stop-color:#8d1cee;stop-opacity:1;"
         offset="0.48435891"
         id="stop10" /></linearGradient><linearGradient
       xlink:href="#linearGradient10"
       id="linearGradient31"
       gradientUnits="userSpaceOnUse"
       gradientTransform="matrix(0.79999739,0,0,0.79999739,1251.9995,-251.99887)"
       x1="192.39685"
       y1="739.62689"
       x2="196.18787"
       y2="441.89844" /></defs><g
     id="layer2"
     transform="translate(-1300.0001,-99.999893)"><rect
       style="fill:#ffffff;fill-opacity:1;fill-rule:evenodd;stroke:#000000;stroke-width:1.51646;stroke-linecap:round;stroke-linejoin:round;stroke-dasharray:none;stroke-opacity:1"
       id="rect1-3-47-1"
       width="398.48352"
       height="1298.4835"
       x="1199.2417"
       y="0.75820434" /></g><g
     id="g1"
     transform="translate(-1300.0001,-99.999893)"><path
       id="path30-2-9-2-7-86-8-98-7-2-4-0-4"
       style="display:inline;overflow:visible;vector-effect:none;fill:url(#linearGradient31);stroke-width:0.779738;stroke-linecap:round;stroke-linejoin:bevel;enable-background:accumulate;stop-color:#000000"
       d="m 1410.4931,100 c -0.7619,5.3e-4 -1.5244,0.5073 -1.5438,1.51872 v 0.039 l -0.3329,24.40303 h -14.828 c -1.7039,0 -2.1238,2.44979 -0.539,3.05474 -4.5974,10.86932 -7.0878,21.66122 -5.3203,33.50293 0,0 5.3694,-3.54885 20.2374,-3.58429 l -0.2063,15.12184 -33.9796,7.38743 c -1.3723,0.29784 -1.6503,2.1587 -0.4827,2.88748 -0.308,0.52374 -0.6947,1.18924 -1.1422,1.97497 -17.0533,26.53178 -19.418,50.43553 0.3641,76.30139 1.9722,-8.58416 7.938,-14.22126 17.0374,-13.98744 6.2069,0.0612 11.4844,1.30326 17.1328,3.91398 -0.019,2.43038 -0.096,4.86319 -0.081,7.29219 -2.4823,0.0928 -4.9642,0.18647 -7.4438,0.30153 l -0.5266,12.19219 c -7.1572,0.63681 -16.0731,-0.4726 -23.8874,-0.84374 -6.7356,-0.31988 -9.0336,-2.17652 -9.6109,-8.40159 l -10.5751,-3.17804 c -4e-4,-0.0105 -7e-4,-0.0222 0,-0.0327 l -0.3327,-8.96722 c 5.3918,3.60517 9.4813,6.97031 9.4813,6.97031 -15.2319,-20.97146 -10.1775,-50.99061 0.8656,-67.70448 l 1.6844,-0.36723 c 1.9813,-0.43041 1.3192,-3.51753 -0.6407,-3.08427 l -13.6655,2.97184 -1.2829,-34.42808 c -0.08,-1.9908 -3.0202,-1.97582 -3.0812,0.0158 l -0.9734,35.57029 -26.4641,5.75459 c -1.3538,0.29383 -1.6489,2.11535 -0.5218,2.86564 -8.1505,13.95833 -4.5526,30.78905 -0.056,42.52646 l -17.4918,-9.92812 c -1.7517,-0.99529 -3.2641,1.75634 -1.497,2.75775 l 13.2172,7.50154 c 10.045,5.70091 17.2885,14.81567 19.3609,25.51086 2.4582,12.68545 4.0368,25.38947 17.589,29.80463 h -49.8201 c -0.7684,0 -1.1486,0.61149 -1.136,1.21244 0.012,0.58165 0.3923,1.15318 1.136,1.15318 h 197.6634 c 0.6386,0 1.2,-0.52944 1.2,-1.18281 0,-0.65326 -0.5614,-1.18281 -1.2,-1.18281 h -35.4781 c 5.2524,-2.18454 7.3025,-8.18434 6.8031,-14.43905 -0.9734,-12.19419 5.8581,-23.15948 11.4938,-33.49523 1.8728,-4.03791 5.0208,-6.91694 8.6828,-9.01552 l 8.5031,-1.84852 c 1.9797,-0.43157 1.3164,-3.50952 -0.6421,-3.08586 l -35.2766,7.67029 -0.153,-5.35002 25.6468,-5.57498 c 1.9705,-0.43009 1.329,-3.5132 -0.6423,-3.08596 l -1.236,0.26884 c -22.3305,-20.5961 -9.1445,-60.58092 3.3407,-89.80759 0,0 -15.075,17.87991 -28.8281,37.25618 l -0.6811,-24.12492 c -0.062,-1.99396 -3.0065,-2.00524 -3.0828,-0.0127 l -1.0954,31.14047 c -12.2464,17.40151 -20.6942,37.24637 -26.2749,57.85925 l -0.7531,0.16241 c -1.9728,0.42862 -1.3321,3.5169 0.6406,3.08755 l 24.4218,-5.30942 -0.1906,5.42343 -14.4469,3.1407 c -1.2541,0.27242 -1.6211,1.8753 -0.7125,2.71398 -2.6702,2.34431 -4.5054,6.32843 -8.1859,7.23123 -1.2094,0.29668 -2.4762,0.24183 -3.7157,0.3453 -1.9786,-10.80456 -5.0369,-30.87027 -3.0435,-42.81081 3.3242,-19.91352 16.8863,-40.5247 21.2686,-46.781 l 1.6921,-0.36882 c 1.9719,-0.4283 1.3313,-3.51183 -0.6407,-3.08438 l -33.27,7.23282 -0.1766,-13.88271 c 7.5194,0.67393 18.0233,3.57965 18.0233,3.57965 -0.096,-0.20081 -9.2169,-19.26901 -8.2187,-33.55303 h 0.5031 c 2.0162,0 2.0162,-3.15472 0,-3.15472 h -10.7296 l -0.1141,-8.98272 c 7.404,-4.02293 14.0017,2.9845 18.1671,3.24838 0,0 -2.7614,-2.47057 -3.7328,-4.9156 1.2105,-0.90038 5.8437,-0.72034 5.8437,-0.72034 -8.2543,-5.18286 -9.9928,-11.35183 -20.3953,-6.87497 l -0.08,-6.15462 v -0.0422 c -0.018,-1.01364 -0.7786,-1.519357 -1.5405,-1.51883 z m -76.4779,142.24172 c 4.6913,-0.0105 8.7931,1.99965 11.3093,3.26093 l -0.2937,10.81869 -19.8812,-11.28432 c 3.023,-2.05703 6.0508,-2.7895 8.8656,-2.7953 z m 79.9873,14.139 c 1.4813,0.90069 3.0139,1.88469 4.6172,2.95465 -1.5273,0.0791 -3.0547,0.1485 -4.583,0.21252 0.01,-1.05456 -0.02,-2.11198 -0.035,-3.16717 z" /></g></svg>
