<?xml version="1.0" encoding="UTF-8" standalone="no"?>
<!-- Created with Inkscape (http://www.inkscape.org/) -->

<svg
   version="1.1"
   id="zp-logo-wordmark"
   width="200"
   height="240.21628"
   viewBox="0 0 200 240.21628"
   xml:space="preserve"
   xmlns:xlink="http://www.w3.org/1999/xlink"
   xmlns="http://www.w3.org/2000/svg"
   xmlns:svg="http://www.w3.org/2000/svg"><style>#layer2{display:none}</style><defs
     id="defs1"><linearGradient
       id="linearGradient50"><stop
         style="stop-color:#ff00b4;stop-opacity:1;"
         offset="0.2"
         id="stop49" /><stop
         style="stop-color:#8d1cee;stop-opacity:1;"
         offset="0.48435891"
         id="stop50" /></linearGradient><linearGradient
       xlink:href="#linearGradient50"
       id="linearGradient7-8"
       gradientUnits="userSpaceOnUse"
       gradientTransform="matrix(0.79999405,0,0,0.79999405,452.00099,-251.99736)"
       x1="194.29236"
       y1="739.63898"
       x2="194.29236"
       y2="441.88638" /></defs><g
     id="layer2"
     transform="translate(-500,-99.999999)"><rect
       style="fill:#ffffff;fill-opacity:1;fill-rule:evenodd;stroke:#000000;stroke-width:2.14527;stroke-linecap:round;stroke-linejoin:round;stroke-dasharray:none;stroke-opacity:1"
       id="rect1-3"
       width="797.85474"
       height="1297.8547"
       x="1.0726362"
       y="1.0726339" /></g><g
     id="g1"
     transform="translate(-500,-99.999999)"><path
       d="m 610.49311,100 c -0.76199,5.5e-4 -1.52346,0.50671 -1.54287,1.51814 v 0.0391 l -0.33369,24.40354 h -14.82711 c -1.70391,0 -2.12451,2.44989 -0.53977,3.05481 -4.59739,10.86927 -7.08819,21.66042 -5.32068,33.50208 0,0 5.37067,-3.54874 20.23848,-3.58421 l -0.20597,15.12166 -33.98003,7.38884 c -1.37243,0.29784 -1.6497,2.15709 -0.48198,2.88591 -0.30807,0.52369 -0.69576,1.18969 -1.14326,1.97542 -17.05329,26.53167 -19.41742,50.43478 0.3646,76.30045 1.97212,-8.58409 7.93815,-14.2204 17.03737,-13.98666 6.20702,0.0615 11.48382,1.30301 17.13207,3.91378 -0.019,2.43034 -0.0949,4.86302 -0.0802,7.29203 -2.48226,0.0924 -4.96473,0.18775 -7.44446,0.3028 l -0.52733,12.19044 c -7.15716,0.63688 -16.07235,-0.47132 -23.88646,-0.8425 -6.73572,-0.31985 -9.03436,-2.17725 -9.61147,-8.40229 l -10.57344,-3.17842 c -5.2e-4,-0.011 -7.4e-4,-0.0219 0,-0.0329 l -0.33369,-8.9667 c 5.39176,3.60511 9.48175,6.97068 9.48175,6.97068 -15.23168,-20.97131 -10.17794,-50.99071 0.86514,-67.70453 l 1.68493,-0.36665 c 1.98129,-0.43042 1.31928,-3.51692 -0.6406,-3.08366 l -13.66529,2.97036 -1.28332,-34.42696 c -0.0802,-1.99088 -3.02056,-1.97708 -3.08162,0.0145 l -0.9723,35.5702 -26.46543,5.75534 c -1.35377,0.29382 -1.64844,2.11497 -0.52121,2.86531 -8.15045,13.95825 -4.5532,30.78913 -0.058,42.52645 l -17.49045,-9.92867 c -1.75159,-0.99528 -3.26482,1.75678 -1.49763,2.7582 l 13.21833,7.50212 c 10.04494,5.70087 17.28647,14.81457 19.35889,25.5097 2.45811,12.68539 4.03715,25.38943 17.58938,29.80457 h -49.82045 c -0.76843,0 -1.14769,0.6123 -1.13503,1.21327 0.0116,0.58159 0.39138,1.15354 1.13503,1.15354 h 197.6631 c 0.6386,0 1.20095,-0.52903 1.20095,-1.18237 0,-0.65326 -0.56235,-1.18444 -1.20095,-1.18444 H 663.3209 c 5.25223,-2.18454 7.30334,-8.18309 6.80385,-14.43778 -0.97345,-12.19417 5.85645,-23.16026 11.49215,-33.4959 1.87277,-4.03787 5.02253,-6.91755 8.68453,-9.01614 l 8.50323,-1.84773 c 1.97961,-0.43159 1.3158,-3.50934 -0.64271,-3.08571 l -35.27779,7.67103 -0.1524,-5.3516 25.64776,-5.57407 c 1.97053,-0.43007 1.32845,-3.51304 -0.64272,-3.08571 l -1.23596,0.26779 c -22.33051,-20.59592 -9.14383,-60.58068 3.34118,-89.80715 0,0 -15.07527,17.88112 -28.8282,37.25726 l -0.68184,-24.12545 c -0.0622,-1.99395 -3.00727,-2.00518 -3.08363,-0.0123 l -1.09379,31.14143 c -12.24624,17.40146 -20.69526,37.2455 -26.27602,57.85824 l -0.75187,0.16273 c -1.97275,0.4286 -1.33193,3.51708 0.64061,3.08778 l 24.42212,-5.3104 -0.19152,5.42369 -14.44606,3.14134 c -1.25421,0.27246 -1.62133,1.8742 -0.71274,2.71287 -2.6702,2.34432 -4.50542,6.32941 -8.18599,7.23228 -1.20938,0.29666 -2.47667,0.24055 -3.71601,0.34401 -1.97865,-10.8045 -5.03792,-30.87032 -3.0446,-42.81073 3.3242,-19.91345 16.88613,-40.52379 21.26847,-46.78014 l 1.69316,-0.36872 c 1.9718,-0.42829 1.3313,-3.51115 -0.64061,-3.08366 l -33.26928,7.23228 -0.17719,-13.88367 c 7.51934,0.67392 18.02201,3.58009 18.02201,3.58009 -0.096,-0.20077 -9.21513,-19.26963 -8.2169,-33.55357 h 0.50255 c 2.0162,0 2.0162,-3.15369 0,-3.15369 h -10.72994 l -0.11327,-8.98318 c 7.40395,-4.02282 14.00077,2.98452 18.16617,3.24845 0,0 -2.76122,-2.46987 -3.73256,-4.9149 1.21044,-0.90041 5.844,-0.72096 5.844,-0.72096 -8.25444,-5.18283 -9.99274,-11.35067 -20.395,-6.87386 l -0.0802,-6.15496 v -0.0432 c -0.0179,-1.01361 -0.77898,-1.51868 -1.54087,-1.51814 z m 4.70064,29.24428 c -11.89039,5.36387 -18.71787,11.60656 -24.49764,28.60009 -0.79174,-1.71631 -0.27168,-9.68898 1.72069,-16.38263 1.99236,-6.69365 4.43191,-12.08562 4.43191,-12.08562 10.07331,0.025 18.34504,-0.13184 18.34504,-0.13184 z m 56.57874,40.74793 c 0,0 -12.40886,26.50619 -10.92674,37.26948 -8.61271,4.18166 -18.9055,19.75109 -25.04428,29.4137 3.70124,-20.32928 29.84585,-60.72504 35.97102,-66.68318 z m -125.03616,24.24156 c -19.13921,4.89657 -24.15309,24.64227 -25.31216,42.21521 -2.33978,-7.10053 -3.06222,-12.23616 -2.79834,-20.28246 0.20492,-6.24981 2.56694,-11.29251 5.28893,-16.72122 z m -12.72084,48.00792 c 4.69146,-0.009 8.79464,1.99952 11.31085,3.26081 l -0.29456,10.81855 -19.88212,-11.28409 c 3.02299,-2.05701 6.05104,-2.78942 8.86583,-2.79527 z m 79.98765,14.1391 c 1.48128,0.90072 3.01286,1.88385 4.61616,2.95388 -1.52726,0.0792 -3.05293,0.14814 -4.58114,0.21218 0.0105,-1.05458 -0.02,-2.11093 -0.0348,-3.16606 z m -5.00554,7.57422 c 1.7673,-6.1e-4 3.20048,1.43166 3.20101,3.19901 6.3e-4,1.76815 -1.43287,3.20167 -3.20101,3.20107 -1.76741,-5.3e-4 -3.19964,-1.43371 -3.19901,-3.20107 5.3e-4,-1.76655 1.43245,-3.19849 3.19901,-3.19901 z m 11.19959,0 c 1.76656,5.3e-4 3.19848,1.43247 3.199,3.19901 6.4e-4,1.76735 -1.4316,3.20053 -3.199,3.20107 -1.76815,6.1e-4 -3.20165,-1.43291 -3.20102,-3.20107 2.1e-4,-1.60591 1.19072,-2.96293 2.78284,-3.17224 0.13869,-0.018 0.27843,-0.027 0.41818,-0.0268 z m 11.19969,0 c 1.76656,5.3e-4 3.19848,1.43247 3.19901,3.19901 5.2e-4,1.76735 -1.43171,3.20053 -3.19901,3.20107 -1.76741,-5.3e-4 -3.19964,-1.43371 -3.19901,-3.20107 0,-1.60523 1.18945,-2.96199 2.78083,-3.17224 0.13869,-0.018 0.27833,-0.027 0.41818,-0.0268 z m 11.58275,56.34627 c -0.6193,0.51986 -1.09,0.91005 -1.41104,1.17002 -0.19121,0.15295 -0.35468,0.28697 -0.49232,0.40168 -0.11474,0.0995 -0.2219,0.20192 -0.32135,0.30899 -0.0991,0.10706 -0.18731,0.23105 -0.26367,0.36872 -0.0696,0.13001 -0.12234,0.28347 -0.16062,0.45935 -0.038,0.1759 -0.0559,0.38296 -0.0559,0.62002 l -0.53967,0.447 c -0.6424,1.43773 -1.2154,2.72488 -1.72006,3.86435 -0.49716,1.13949 -0.94266,2.14859 -1.33278,3.02805 -0.3899,0.87181 -0.72634,1.62968 -1.00931,2.27207 -0.28297,0.64239 -0.52417,1.19053 -0.72308,1.64173 -0.46648,1.05535 -0.77866,1.77698 -0.93928,2.167 -0.14164,0.31741 -0.26683,0.61241 -0.37493,0.88781 -0.13954,0.019 -0.28244,0.0309 -0.42841,0.0309 -0.25997,0 -0.50866,-0.0241 -0.74565,-0.07 -0.22939,-0.0459 -0.43452,-0.0995 -0.61803,-0.16067 -0.2142,-0.0688 -0.41849,-0.14924 -0.6097,-0.24101 -0.37472,-0.19883 -0.90606,-0.56466 -1.59434,-1.09999 -0.29826,-0.22942 -0.64187,-0.50217 -1.03199,-0.81571 -0.39001,-0.32119 -0.83846,-0.69909 -1.34311,-1.13501 -0.50466,-0.4359 -1.07017,-0.93309 -1.69727,-1.49135 -0.61941,-0.55828 -1.30705,-1.18948 -2.06409,-1.89304 0.72645,-0.36709 1.33352,-0.74969 1.82299,-1.14736 0.49717,-0.40532 0.89435,-0.81208 1.19272,-1.2174 0.29826,-0.41295 0.51278,-0.82032 0.64271,-1.22564 0.13004,-0.41295 0.19564,-0.81502 0.19564,-1.20504 0,-0.73416 -0.14132,-1.36064 -0.42429,-1.88067 -0.27527,-0.52003 -0.64788,-0.94152 -1.11446,-1.26271 -0.46648,-0.32885 -1.00784,-0.56803 -1.62725,-0.72097 -0.6194,-0.15297 -1.26549,-0.23071 -1.93836,-0.23071 -0.34425,0 -0.68543,0.0149 -1.02176,0.0453 -0.33655,0.023 -0.67752,0.0544 -1.02166,0.0927 -0.34413,0.0306 -0.69523,0.0621 -1.05466,0.0927 -0.35173,0.023 -0.7196,0.0329 -1.10202,0.0329 -0.34403,0 -0.77834,-0.015 -1.30599,-0.0454 -0.52765,-0.0305 -1.09052,-0.0889 -1.68704,-0.17303 l -2.90244,1.83536 c 0.39012,0.0459 0.76527,0.0774 1.1247,0.0927 0.36702,0.0153 0.69608,0.0227 0.98674,0.0227 h 0.58502 c 0.19121,-0.008 0.38601,-0.0224 0.58492,-0.0453 -0.0453,1.74362 -0.0897,3.2935 -0.12772,4.64711 -0.038,1.34596 -0.0728,2.52591 -0.10336,3.54302 -0.0232,1.01712 -0.0454,1.88484 -0.0696,2.60371 -0.0158,0.71885 -0.0264,1.31855 -0.0348,1.80034 -0.0306,1.13947 -0.0454,1.85109 -0.0454,2.13404 -0.0105,0.24471 0.0232,0.44707 0.0928,0.60768 0.0759,0.16059 0.1716,0.28724 0.28634,0.37901 0.11464,0.0995 0.24616,0.16776 0.39139,0.20599 0.14533,0.0383 0.2914,0.0577 0.43674,0.0577 0.48946,0 0.96976,-0.071 1.44394,-0.21629 0.48166,-0.1453 0.94012,-0.33293 1.37602,-0.56235 0.43589,-0.22178 0.84531,-0.46772 1.22773,-0.73539 0.39002,-0.2753 0.73837,-0.53862 1.04433,-0.79099 -0.2064,0.0688 -0.42819,0.12981 -0.66528,0.18333 -0.19891,0.0459 -0.42535,0.0895 -0.67773,0.12772 -0.25238,0.0305 -0.50634,0.0432 -0.76632,0.0432 -0.26008,0 -0.5133,-0.0247 -0.75799,-0.0783 -0.24478,-0.0536 -0.45645,-0.14807 -0.63237,-0.27808 l 0.44897,-13.94753 c 0.4207,-0.0459 0.85955,-0.0679 1.31833,-0.0679 0.56593,0 1.12881,0.0831 1.68704,0.25131 0.55834,0.16825 1.05551,0.42156 1.4914,0.75804 0.44359,0.33649 0.80207,0.75797 1.07734,1.26272 0.27527,0.50473 0.41406,1.09233 0.41406,1.76531 0,0.55827 -0.10947,1.07019 -0.32346,1.53669 -0.20661,0.45885 -0.4919,0.87563 -0.85892,1.25035 -0.35943,0.37473 -0.78372,0.70844 -1.27309,0.99905 -0.48947,0.2906 -1.01068,0.5392 -1.56132,0.74568 0.70367,0.66533 1.34195,1.26501 1.91569,1.80034 0.58112,0.52767 1.10265,1.00072 1.56132,1.42133 0.45889,0.42061 0.86356,0.79115 1.2154,1.11234 0.35173,0.3212 0.65653,0.59866 0.91661,0.82808 0.6117,0.54298 1.07681,0.94501 1.39047,1.20504 0.23698,0.21413 0.45888,0.39232 0.66539,0.53762 0.21409,0.14531 0.42176,0.26254 0.62826,0.35431 0.20629,0.0917 0.41079,0.15745 0.6097,0.19569 0.19881,0.0459 0.40594,0.07 0.62004,0.07 0.38242,0 0.75282,-0.0583 1.11235,-0.17303 0.36703,-0.10706 0.7254,-0.2558 1.07724,-0.447 0.35943,-0.18353 0.71538,-0.40266 1.06711,-0.65504 0.14987,-0.10758 0.30248,-0.21644 0.45519,-0.32958 -0.11158,0.33127 -0.16896,0.61297 -0.16896,0.84661 0,0.1912 0.0485,0.33992 0.14006,0.447 0.0991,0.10706 0.25808,0.16273 0.47998,0.16273 0.37472,0 0.70852,-0.0437 0.99908,-0.12771 0.29067,-0.0765 0.57596,-0.20107 0.85903,-0.37697 0.28286,-0.17588 0.58238,-0.4071 0.89604,-0.69005 0.31345,-0.28296 0.68395,-0.62669 1.11225,-1.03201 -0.24468,0.0612 -0.46173,0.10744 -0.65294,0.13801 -0.19121,0.0305 -0.36407,0.0453 -0.517,0.0453 -0.26778,0 -0.46996,-0.0369 -0.6077,-0.11329 -0.12993,-0.0841 -0.21989,-0.18868 -0.26577,-0.31104 -0.0453,-0.12235 -0.0612,-0.25638 -0.0453,-0.40168 0.0232,-0.15296 0.0622,-0.30169 0.11527,-0.447 l 0.93939,-2.20409 h 3.38431 c 0.64999,0 1.25453,-0.0396 1.81276,-0.12359 0.56593,-0.0841 1.08979,-0.20076 1.57166,-0.34606 0.22939,0.55826 0.45129,1.09433 0.66539,1.60671 0.2142,0.50475 0.40911,0.96776 0.58502,1.38838 0.18362,0.41296 0.34435,0.77347 0.48198,1.07937 0.13774,0.29825 0.24775,0.51533 0.3317,0.65299 0.23709,0.4359 0.47818,0.73809 0.72297,0.90635 0.24468,0.17589 0.51278,0.26367 0.80334,0.26367 0.38231,0 0.75292,-0.0683 1.11235,-0.20599 0.36703,-0.13764 0.71823,-0.31793 1.05467,-0.53969 0.34424,-0.22179 0.67055,-0.47037 0.9764,-0.74568 0.31356,-0.28296 0.60844,-0.57044 0.88371,-0.86104 -0.32874,0.19118 -0.63575,0.28839 -0.91872,0.28839 -0.28297,0 -0.54168,-0.0582 -0.77866,-0.17303 -0.22949,-0.12236 -0.43178,-0.25637 -0.6077,-0.40168 -0.19891,-0.16825 -0.37904,-0.36322 -0.53967,-0.58501 -0.11475,-0.16059 -0.24605,-0.37503 -0.39138,-0.64269 -0.14523,-0.26767 -0.30143,-0.57723 -0.46965,-0.92901 -0.16062,-0.35944 -0.33622,-0.74941 -0.52733,-1.17002 -0.18362,-0.42826 -0.37114,-0.87656 -0.56235,-1.34305 0.19881,-0.15296 0.38643,-0.30171 0.56235,-0.447 0.17592,-0.15297 0.33929,-0.30168 0.49232,-0.44698 -0.0918,0.0153 -0.20155,0.0347 -0.33169,0.0577 -0.11454,0.0154 -0.25608,0.0396 -0.42429,0.07 -0.16833,0.0306 -0.36334,0.0599 -0.58503,0.0906 -0.33644,-0.84123 -0.67277,-1.7016 -1.00931,-2.58105 -0.33644,-0.87947 -0.65083,-1.70565 -0.94139,-2.47805 -0.28297,-0.78004 -0.52892,-1.4675 -0.73542,-2.06401 -0.2064,-0.5965 -0.35047,-1.0327 -0.43463,-1.30802 -0.0538,-0.15295 -0.096,-0.32113 -0.12561,-0.50468 -0.0295,-0.15294 -0.057,-0.33056 -0.0802,-0.52939 -0.0232,-0.20648 -0.0348,-0.41885 -0.0348,-0.64063 0,-0.21412 0.0158,-0.42856 0.0475,-0.64269 0.038,-0.22155 0.1023,-0.4216 0.19364,-0.59737 z m 10.12847,0.70037 c -0.45847,0.22921 -0.85165,0.444 -1.18028,0.64268 -0.32874,0.19883 -0.60907,0.38176 -0.83846,0.55 -0.22179,0.16824 -0.39729,0.32171 -0.52733,0.45935 -0.12993,0.13767 -0.22981,0.25959 -0.29868,0.36666 -0.16063,0.25236 -0.18995,0.46208 -0.0907,0.63033 0.17592,0.19118 0.48093,0.32522 0.91671,0.40167 0.4359,0.0765 0.984,0.11536 1.64169,0.11536 0.71886,0 1.42844,-0.022 2.13201,-0.0679 0.71137,-0.0535 1.42759,-0.12394 2.14645,-0.20806 -0.0454,1.77421 -0.0897,3.35091 -0.12772,4.72745 -0.038,1.3689 -0.0728,2.56829 -0.10336,3.6007 -0.0232,1.03241 -0.0443,1.91693 -0.0675,2.65108 -0.0158,0.72651 -0.0264,1.33563 -0.0348,1.82507 -0.0306,1.14713 -0.0453,1.86403 -0.0453,2.15463 -0.0106,0.24472 0.0222,0.44708 0.0907,0.60768 0.0686,0.16058 0.16126,0.28724 0.27601,0.37901 0.11464,0.0995 0.24605,0.16775 0.39138,0.20599 0.14534,0.0383 0.29215,0.0577 0.44497,0.0577 0.48947,0 0.97187,-0.0711 1.44605,-0.21629 0.48177,-0.1453 0.94002,-0.33293 1.37591,-0.56235 0.4359,-0.22178 0.84532,-0.4677 1.22774,-0.73538 0.38991,-0.27521 0.73858,-0.53871 1.04433,-0.791 -0.2064,0.0688 -0.4282,0.12983 -0.66529,0.18333 -0.1988,0.0459 -0.42323,0.0895 -0.67561,0.12772 -0.25239,0.0305 -0.50846,0.0454 -0.76843,0.0454 -0.26008,0 -0.51331,-0.0268 -0.75799,-0.0804 -0.24479,-0.0535 -0.45646,-0.14603 -0.63238,-0.27603 l 0.44908,-14.2359 c 1.10887,-0.13766 2.23515,-0.25224 3.38231,-0.344 0.51235,-0.0383 0.84869,-0.008 1.00931,0.0906 0.16063,0.0918 0.20893,0.25731 0.14006,0.49438 0.13774,-0.0459 0.328,-0.12157 0.57268,-0.22864 0.24469,-0.11471 0.50065,-0.2461 0.76833,-0.39139 0.26767,-0.14531 0.52838,-0.2967 0.78077,-0.45729 0.25227,-0.16825 0.46204,-0.32641 0.63026,-0.47172 0.17592,-0.15295 0.28582,-0.28491 0.3317,-0.39961 0.0453,-0.12237 1e-4,-0.2122 -0.14829,-0.26574 -0.0918,-0.0383 -0.2258,-0.0603 -0.40172,-0.0679 -0.16812,-0.0153 -0.36302,-0.0227 -0.58502,-0.0227 -0.82591,0 -1.65467,0.0342 -2.48838,0.10293 -0.8258,0.0688 -1.65951,0.14926 -2.50072,0.24101 -0.8336,0.0841 -1.68398,0.15983 -2.54806,0.22866 -0.8566,0.0688 -1.72892,0.10304 -2.6161,0.10304 -0.81051,0 -1.44447,-0.0315 -1.90335,-0.0927 -0.45119,-0.0688 -0.78763,-0.14246 -1.00932,-0.22658 -0.11474,-0.0535 -0.20249,-0.12394 -0.26366,-0.20806 -0.0538,-0.0688 -0.0833,-0.15189 -0.0907,-0.2513 -0.0106,-0.10698 0.0485,-0.23862 0.17096,-0.39138 z m -145.22445,0.40168 c -0.74934,0 -1.4026,0.0656 -1.96094,0.19568 -0.55824,0.13001 -1.07492,0.33708 -1.54909,0.62003 -0.46638,0.27531 -0.91746,0.62907 -1.35335,1.06497 -0.43589,0.42827 -0.90638,0.94488 -1.41103,1.54903 0.43578,-0.38237 0.92104,-0.63832 1.45638,-0.76834 0.54294,-0.13001 1.12322,-0.19363 1.74262,-0.19363 0.73426,0 1.50406,0.0536 2.30708,0.16067 0.80292,0.10707 1.61976,0.18747 2.45336,0.24101 0.29056,0.0153 0.59294,0.008 0.90638,-0.0144 0.26768,-0.0153 0.5672,-0.04 0.89605,-0.0783 0.32873,-0.0459 0.65304,-0.11892 0.97429,-0.21835 -0.45888,0.50473 -0.98284,1.14331 -1.57166,1.91569 -0.58882,0.76475 -1.25209,1.68609 -1.99395,2.76439 -0.39012,0.55826 -0.81145,1.17739 -1.26274,1.85802 -0.45108,0.68062 -0.91893,1.38016 -1.4007,2.09902 -0.47418,0.71887 -0.9472,1.43521 -1.42138,2.14641 -0.47417,0.71124 -0.92504,1.3766 -1.35334,1.99603 -0.4283,0.61182 -0.82306,1.15786 -1.18239,1.63968 -0.35953,0.47412 -0.65958,0.83733 -0.90427,1.08969 0.15293,-0.0383 0.34319,-0.0651 0.57269,-0.0804 0.23688,-0.008 0.50033,-0.0105 0.791,-0.0105 0.53524,0 1.14969,0.0174 1.84566,0.0556 0.69597,0.0383 1.43171,0.0845 2.20404,0.13801 0.77243,0.0536 1.55499,0.10441 2.35032,0.15037 0.80312,0.0536 1.57567,0.0904 2.31741,0.1133 0.94076,0.0305 1.77163,-0.0473 2.49038,-0.23071 0.72666,-0.18356 1.37254,-0.44215 1.93837,-0.77864 0.57363,-0.33649 1.0901,-0.73384 1.54898,-1.19268 0.45857,-0.46625 0.8932,-0.95926 1.30599,-1.479 -0.22928,0.2597 -0.49558,0.47726 -0.80122,0.65299 -0.29826,0.16825 -0.64398,0.3049 -1.0341,0.41197 -0.39002,0.0995 -0.82897,0.17248 -1.31833,0.21835 -0.48188,0.0383 -1.0206,0.0577 -1.61701,0.0577 -0.76474,0 -1.53001,-0.0269 -2.29474,-0.0804 -0.75715,-0.0535 -1.52241,-0.10979 -2.29474,-0.17097 -0.77244,-0.0688 -1.55226,-0.1298 -2.33999,-0.18333 -0.78003,-0.0536 -1.56997,-0.0824 -2.37299,-0.0824 h -0.11538 c 0.49717,-0.50472 1.0284,-1.10914 1.59433,-1.8127 0.57364,-0.70358 1.15128,-1.4473 1.7324,-2.23499 0.58892,-0.79533 1.16645,-1.60208 1.73239,-2.42038 0.56593,-0.82593 1.08989,-1.60321 1.57166,-2.32973 0.48947,-0.73416 0.92093,-1.39216 1.29565,-1.97337 0.37462,-0.58886 0.66212,-1.04717 0.86103,-1.37601 0.27527,-0.42061 0.56815,-0.83002 0.8817,-1.22769 0.26778,-0.34414 0.57922,-0.69055 0.93106,-1.04231 0.35932,-0.35944 0.73985,-0.65634 1.14526,-0.88576 -0.35954,0.10703 -0.73732,0.18478 -1.13503,0.23071 -0.39002,0.0383 -0.78731,0.0577 -1.19261,0.0577 -0.49707,0 -0.98696,-0.0268 -1.46873,-0.0804 -0.48188,-0.0612 -0.97156,-0.12685 -1.46873,-0.19569 -0.48936,-0.0765 -0.98664,-0.14009 -1.49129,-0.19362 -0.49717,-0.0612 -1.0091,-0.0927 -1.53675,-0.0927 z m 172.67662,0.29868 c -0.97124,0 -1.95091,0.10251 -2.93734,0.30898 -0.98653,0.19884 -1.93942,0.49839 -2.85709,0.89606 -0.90996,0.39767 -1.76582,0.89279 -2.56874,1.4893 -0.80291,0.58885 -1.50986,1.27573 -2.12167,2.05577 -0.6117,0.7724 -1.10887,1.63806 -1.49129,2.60164 -0.37473,0.96358 -0.58914,2.01629 -0.64272,3.15576 -0.0538,0.97887 0.0348,1.8466 0.26367,2.6037 0.2295,0.74945 0.55106,1.40275 0.96407,1.96101 0.4206,0.55062 0.91302,1.01364 1.47896,1.38837 0.57352,0.36708 1.17531,0.66458 1.80242,0.894 0.63469,0.22178 1.27129,0.37995 1.91358,0.47171 0.64999,0.0994 1.26655,0.14831 1.84777,0.14831 0.66528,0 1.33542,-0.0805 2.0084,-0.24101 0.67298,-0.15296 1.33362,-0.37003 1.98361,-0.65298 0.65769,-0.2906 1.29365,-0.63168 1.90547,-1.02171 0.45086,-0.28947 0.87716,-0.61759 1.29976,-0.95166 -0.10936,0.0734 -0.22242,0.1422 -0.33781,0.20598 -0.29066,0.16061 -0.58808,0.29726 -0.89403,0.41199 -0.29826,0.10705 -0.60042,0.1969 -0.90628,0.26572 -0.29826,0.0688 -0.58576,0.12243 -0.86103,0.16067 -0.64239,0.0917 -1.2909,0.12125 -1.9487,0.0906 -1.13935,-0.0917 -2.18273,-0.28205 -3.13098,-0.57265 -0.94055,-0.29826 -1.75412,-0.72506 -2.4348,-1.28332 -0.68057,-0.55826 -1.2193,-1.27194 -1.61701,-2.1361 -0.39012,-0.86416 -0.60243,-1.9148 -0.64071,-3.15369 1.18544,-0.0688 2.1898,-0.1298 3.01571,-0.18333 0.82591,-0.0612 1.51819,-0.11214 2.07642,-0.15038 0.55823,-0.0459 1.01396,-0.0799 1.36569,-0.10293 0.35173,-0.0305 0.64651,-0.0528 0.8837,-0.068 0.23698,-0.0229 0.44665,-0.0378 0.63027,-0.0453 0.18351,-0.008 0.38801,-0.0123 0.6098,-0.0123 0.49707,0 0.79722,0.0656 0.90427,0.19568 0.11465,0.12237 0.0833,0.33209 -0.0928,0.63033 0.2219,-0.0688 0.46775,-0.15927 0.73531,-0.27397 0.27548,-0.12237 0.546,-0.25372 0.81368,-0.39137 0.26767,-0.1453 0.5209,-0.29405 0.75809,-0.447 0.24468,-0.15295 0.44707,-0.29431 0.60759,-0.42433 0.16833,-0.13765 0.28033,-0.25488 0.3338,-0.35431 0.0622,-0.10701 0.0443,-0.18479 -0.0475,-0.23071 -0.077,-0.0305 -0.30036,-0.0473 -0.66749,-0.0473 -0.35933,0 -0.8083,0.0168 -1.35124,0.0473 -0.54294,0.023 -1.15211,0.0523 -1.8251,0.0906 -0.67298,0.0383 -1.36041,0.077 -2.06397,0.11535 -0.69587,0.0306 -1.38088,0.0621 -2.05375,0.0927 -0.66539,0.023 -1.26971,0.035 -1.81265,0.035 h -1.37602 c -0.45899,0 -0.92452,-0.009 -1.3987,-0.0247 0.10705,-1.22359 0.36565,-2.22533 0.77866,-3.00538 0.4129,-0.78769 0.93696,-1.40417 1.57166,-1.84772 0.6425,-0.45122 1.37349,-0.75873 2.1918,-0.92696 0.82591,-0.16825 1.70097,-0.25336 2.62633,-0.25336 0.64999,0 1.26655,0.0388 1.84767,0.11535 0.58133,0.0765 1.05424,0.20313 1.42137,0.37902 0.1987,0.0995 0.35236,0.20457 0.45941,0.31928 0.0917,0.0995 0.14533,0.21606 0.16062,0.34607 0.0158,0.13 -0.0696,0.2667 -0.25333,0.41197 0.0759,-0.0383 0.20313,-0.0946 0.37894,-0.17097 0.17582,-0.0765 0.37082,-0.16896 0.58503,-0.27603 0.22169,-0.10705 0.44833,-0.22369 0.67772,-0.34605 0.23709,-0.13001 0.4495,-0.26404 0.64061,-0.40168 0.19891,-0.13767 0.36175,-0.27433 0.48409,-0.41199 0.12993,-0.13765 0.19363,-0.26696 0.19363,-0.38931 0,-0.20649 -0.17285,-0.38467 -0.51699,-0.53763 -0.11464,-0.0535 -0.27348,-0.11391 -0.47998,-0.1751 -0.2064,-0.0688 -0.45498,-0.12773 -0.74565,-0.18126 -0.28286,-0.0536 -0.60453,-0.0998 -0.96407,-0.13801 -0.35932,-0.0383 -0.75208,-0.0577 -1.18027,-0.0577 z m -115.8957,0.12565 c -0.41997,1.5e-4 -0.82855,0.0464 -1.22563,0.13802 -0.39771,0.0917 -0.78752,0.21842 -1.17004,0.37901 -0.38243,0.16059 -0.76485,0.35087 -1.14727,0.57265 -0.37483,0.21413 -0.75271,0.44329 -1.13503,0.68801 0.27538,-0.0689 0.56551,-0.1251 0.87137,-0.17097 0.31355,-0.0535 0.60358,-0.0804 0.87125,-0.0804 0.16822,0 0.32917,0.0106 0.48209,0.0329 0.15282,0.023 0.28434,0.0664 0.39139,0.12771 0.11475,0.0536 0.20249,0.12659 0.26366,0.21835 0.0686,0.0917 0.097,0.20633 0.0886,0.344 -0.0106,0.12236 -0.0137,0.3957 -0.0211,0.82395 -0.0105,0.4206 -0.0179,0.94196 -0.0243,1.5614 -0.0105,0.61944 -0.0158,1.31163 -0.0221,2.07637 -0.0106,0.75709 -0.0148,1.53234 -0.0232,2.32768 -0.0105,0.79533 -0.0158,1.58266 -0.0232,2.3627 -0.0105,0.77241 -0.0158,1.48871 -0.0232,2.1464 0,0.65004 4.2e-4,1.21292 -0.0105,1.68705 v 0.99699 c 0,0.37474 0.0359,0.66957 0.11327,0.8837 0.077,0.20649 0.18837,0.35522 0.3337,0.44699 0.15293,0.0994 0.34329,0.153 0.57268,0.16068 0.2295,0.0153 0.49475,0.0106 0.793,-0.0123 0.29826,-0.0305 0.62247,-0.10629 0.9743,-0.22865 0.35943,-0.12236 0.73742,-0.27847 1.13503,-0.46966 0.40531,-0.19882 0.82675,-0.42798 1.26275,-0.688 0.4359,-0.25999 0.87938,-0.5428 1.33067,-0.84867 -0.10705,0.0305 -0.22907,0.0554 -0.3667,0.0783 -0.12224,0.0153 -0.27105,0.0301 -0.44697,0.0453 -0.17581,0.0153 -0.38495,0.0247 -0.62204,0.0247 -0.26768,0 -0.56984,-0.0149 -0.90638,-0.0453 -0.32884,-0.0305 -0.68986,-0.0815 -1.08768,-0.15036 v -4.66978 c 0.0106,-1.36125 0.0106,-2.55327 0.0106,-3.57804 0.0105,-1.03241 0.0105,-1.9122 0.0105,-2.63871 0.0105,-0.72651 0.0127,-1.33357 0.0127,-1.82301 0.0105,-1.14713 0.0105,-1.8661 0.0105,-2.15671 0,-0.10706 -0.0348,-0.19484 -0.10336,-0.26366 -0.0685,-0.0766 -0.16389,-0.13274 -0.28623,-0.17097 -0.11475,-0.0459 -0.2488,-0.0774 -0.40172,-0.0927 -0.1524,-0.0229 -0.3125,-0.0349 -0.47998,-0.035 z m -20.19925,0.0247 c -0.47418,0 -0.91514,0.059 -1.32044,0.18127 -0.40531,0.1147 -0.79522,0.27554 -1.16994,0.48201 -0.37473,0.20649 -0.73595,0.45713 -1.08768,0.74775 -0.35173,0.28295 -0.71221,0.59518 -1.07934,0.9393 0.43589,-0.19119 0.82105,-0.32991 1.1576,-0.41404 0.34413,-0.0917 0.64102,-0.138 0.88581,-0.138 0.627,0 0.96344,0.24594 1.00931,0.73537 0.0105,0.13765 0.0137,0.40835 0.0211,0.81367 0.0105,0.39766 0.0169,0.88484 0.0243,1.4584 0.0105,0.56592 0.019,1.19506 0.0348,1.89098 0.0158,0.68828 0.038,1.39517 0.0685,2.12169 0.0306,0.7265 0.0717,1.45019 0.12561,2.16906 0.0538,0.71122 0.11939,1.37657 0.19575,1.99603 0.12234,0.93299 0.35616,1.71766 0.7003,2.3524 0.35173,0.62709 0.77138,1.12694 1.26074,1.50166 0.48947,0.37473 1.02809,0.63069 1.61701,0.76834 0.58882,0.1453 1.18112,0.19417 1.77764,0.14831 0.60411,-0.0459 1.24007,-0.21672 1.90536,-0.51497 0.66538,-0.30592 1.32339,-0.69853 1.97338,-1.18032 0.65009,-0.48178 1.27171,-1.03729 1.86834,-1.66439 0.60411,-0.6271 1.14747,-1.29246 1.62935,-1.99603 0.23709,-0.35178 0.4515,-0.77327 0.64271,-1.26272 0.19881,-0.49709 0.3743,-1.03109 0.52733,-1.60465 0.16052,-0.5812 0.30206,-1.1856 0.4244,-1.8127 0.12234,-0.6271 0.2296,-1.24624 0.32136,-1.85803 0.0918,-0.61181 0.16938,-1.19942 0.23065,-1.76533 0.0696,-0.56591 0.12245,-1.0752 0.16063,-1.52638 0.0453,-0.45121 0.0759,-0.83115 0.0907,-1.13706 0.0232,-0.31354 0.039,-0.51854 0.0475,-0.61797 0.0158,-0.26 -0.0759,-0.43762 -0.27601,-0.52938 -0.1988,-0.0995 -0.45951,-0.14832 -0.78066,-0.14832 -0.39001,0 -0.76326,0.0489 -1.12269,0.14832 -0.35932,0.0994 -0.70789,0.23815 -1.04433,0.41404 -0.33654,0.16822 -0.67277,0.37057 -1.00931,0.60766 -0.32885,0.22942 -0.66265,0.4733 -0.99909,0.73332 0.25998,-0.0689 0.48905,-0.11507 0.68796,-0.13801 0.2064,-0.0305 0.39149,-0.0453 0.55212,-0.0453 0.31355,0 0.54747,0.0463 0.7003,0.13801 0.16062,0.0841 0.27526,0.18133 0.34403,0.28839 0.0844,0.12236 0.12097,0.25903 0.11327,0.41197 -0.0696,0.63476 -0.14924,1.35639 -0.24099,2.16701 -0.0918,0.81063 -0.20155,1.65361 -0.33159,2.52542 -0.13004,0.86416 -0.27622,1.72249 -0.43674,2.579 -0.16073,0.85653 -0.34076,1.64853 -0.53967,2.37505 -0.19891,0.72651 -0.4206,1.35978 -0.66539,1.89509 -0.24468,0.53533 -0.51256,0.90852 -0.80333,1.12265 -0.25998,0.19119 -0.57954,0.33994 -0.96196,0.447 -0.37473,0.10707 -0.78889,0.16067 -1.24008,0.16067 -0.49717,0 -1.00625,-0.0777 -1.52631,-0.23071 -0.52005,-0.16061 -0.99571,-0.41656 -1.43171,-0.76834 -0.42819,-0.35943 -0.79342,-0.8204 -1.09168,-1.38631 -0.29056,-0.57356 -0.45888,-1.27309 -0.50466,-2.09902 -0.0158,-0.24472 -0.0295,-0.57374 -0.0453,-0.98669 -0.0158,-0.41297 -0.0337,-0.8807 -0.0559,-1.40074 -0.0158,-0.52002 -0.0369,-1.07348 -0.058,-1.66233 -0.0158,-0.58886 -0.0295,-1.17853 -0.0454,-1.76738 -0.0158,-0.58886 -0.0306,-1.15909 -0.0453,-1.70971 -0.0158,-0.55826 -0.0264,-1.06283 -0.0348,-1.51402 -0.0106,-0.45886 -0.0127,-0.84412 -0.0127,-1.15767 0,-0.3212 0.0105,-0.54033 0.0127,-0.65504 0.0105,-0.11472 -0.019,-0.20984 -0.0802,-0.28632 -0.0612,-0.084 -0.14428,-0.14771 -0.25133,-0.19363 -0.0991,-0.0536 -0.22337,-0.0924 -0.36871,-0.11535 -0.13763,-0.023 -0.28655,-0.0329 -0.44707,-0.0329 z m 30.46788,0.15861 c -0.37472,0 -0.73067,0.0463 -1.06711,0.13802 -0.33644,0.0842 -0.67287,0.20341 -1.00931,0.35636 -0.32895,0.14531 -0.66792,0.32085 -1.01965,0.52733 -0.34424,0.19884 -0.71665,0.41326 -1.11436,0.64268 0.0833,-0.0154 0.1987,-0.02 0.34393,-0.0123 h 0.44707 c 0.16832,0.008 0.34593,0.0123 0.52933,0.0123 0.47418,0 0.71064,0.10988 0.71064,0.33165 0,0.16825 -0.0633,0.37531 -0.18531,0.62003 -0.12234,0.23706 -0.28581,0.50511 -0.49231,0.80335 -0.19891,0.29062 -0.43537,0.60018 -0.71074,0.92901 -0.26778,0.32884 -0.55033,0.65785 -0.84859,0.98669 -0.29056,0.32884 -0.58818,0.65313 -0.89403,0.97433 -0.29826,0.31354 -0.58587,0.60839 -0.86103,0.88369 -0.26778,0.27531 -0.51362,0.52389 -0.73542,0.74568 -0.22169,0.21414 -0.39982,0.38496 -0.53756,0.51497 -0.26008,0.24473 -0.44296,0.44443 -0.55001,0.59737 -0.10715,0.14532 -0.16073,0.27667 -0.16073,0.39138 0,0.12236 0.0411,0.24696 0.12571,0.37696 0.0918,0.12238 0.21368,0.28053 0.36661,0.47172 0.17581,0.22176 0.41701,0.50248 0.72307,0.84661 0.31356,0.33651 0.6694,0.70909 1.06701,1.11441 0.40531,0.40532 0.84415,0.82946 1.31833,1.27301 0.48177,0.44355 0.97915,0.87505 1.4914,1.29567 0.51236,0.41296 1.03167,0.80293 1.55932,1.17002 0.52765,0.36707 1.04433,0.67664 1.54899,0.92901 0.51246,0.25236 0.9995,0.43264 1.45839,0.5397 0.46637,0.11468 0.89066,0.13146 1.27308,0.0473 0.27527,-0.0383 0.59494,-0.1381 0.96196,-0.29869 0.32115,-0.13766 0.70378,-0.34678 1.14737,-0.62208 0.45119,-0.27529 0.96787,-0.65595 1.54899,-1.14531 -0.2064,0.13757 -0.48209,0.206 -0.82602,0.206 -0.65768,0 -1.31822,-0.11458 -1.98361,-0.34401 -0.65769,-0.23707 -1.30831,-0.55134 -1.95081,-0.94136 -0.64229,-0.39002 -1.27351,-0.83626 -1.89302,-1.341 -0.6117,-0.50473 -1.19936,-1.024 -1.7653,-1.55933 -0.55823,-0.53533 -1.08693,-1.06875 -1.5841,-1.59642 -0.48947,-0.53533 -0.9356,-1.02781 -1.3409,-1.479 -0.26008,-0.29062 -0.40352,-0.52978 -0.4264,-0.72096 -0.0158,-0.19118 0.0454,-0.35672 0.1833,-0.49437 0.29066,-0.32121 0.59757,-0.63077 0.91872,-0.92902 0.32103,-0.29826 0.65484,-0.60516 0.99897,-0.91871 0.34425,-0.32119 0.69271,-0.65756 1.04444,-1.00935 0.35943,-0.35177 0.71801,-0.73911 1.07734,-1.15972 0.36702,-0.42061 0.73014,-0.87894 1.08968,-1.37601 0.36702,-0.50473 0.72561,-1.06554 1.07734,-1.68498 -0.19121,-0.0382 -0.37399,-0.0624 -0.55001,-0.07 -0.16811,-0.0153 -0.33644,-0.0227 -0.50466,-0.0227 z m 121.35434,0 c -0.48177,0 -1.03252,0.0509 -1.65203,0.15038 -0.61951,0.0917 -1.258,0.2358 -1.91569,0.43463 -0.6501,0.19118 -1.29334,0.43713 -1.92803,0.73538 -0.62711,0.29826 -1.19515,0.64934 -1.70761,1.05466 -0.50466,0.39765 -0.92357,0.85333 -1.25242,1.36571 -0.32884,0.50473 -0.51436,1.06554 -0.56034,1.685 -0.0454,0.53531 0.0232,1.02044 0.20598,1.45634 0.18351,0.42827 0.50782,0.82765 0.9744,1.19473 0.47407,0.35943 1.09801,0.69847 1.87034,1.01965 0.78014,0.31356 1.73556,0.62045 2.86732,0.91871 0.74185,0.19118 1.36104,0.42035 1.85811,0.68801 0.49717,0.26002 0.89161,0.53806 1.18238,0.83631 0.29826,0.29825 0.50803,0.60988 0.63027,0.93108 0.12245,0.31355 0.18541,0.6184 0.18541,0.91665 0,0.50474 -0.11939,0.9383 -0.35637,1.29773 -0.22939,0.35178 -0.53155,0.6372 -0.90638,0.85897 -0.36713,0.21413 -0.78372,0.37024 -1.25031,0.46966 -0.45888,0.0994 -0.92188,0.15037 -1.38836,0.15037 -0.27537,0 -0.5923,-0.0195 -0.95172,-0.0577 -0.35943,-0.0383 -0.72002,-0.0918 -1.07935,-0.16067 -0.35173,-0.0765 -0.68806,-0.16897 -1.00931,-0.27603 -0.31345,-0.11471 -0.56973,-0.24401 -0.76843,-0.38931 -0.19121,-0.14531 -0.29826,-0.30879 -0.32125,-0.49232 -0.0232,-0.18353 0.077,-0.38323 0.29868,-0.59736 -0.54305,0.2753 -1.00594,0.52655 -1.38836,0.75597 -0.38242,0.22942 -0.69935,0.43913 -0.95173,0.63033 -0.25238,0.19118 -0.44264,0.37144 -0.57268,0.53969 -0.12234,0.1606 -0.1928,0.3114 -0.20798,0.44906 -0.0232,0.11471 0.0432,0.2661 0.19564,0.45729 0.16062,0.18353 0.40182,0.36381 0.72308,0.53969 0.32114,0.17589 0.72328,0.32464 1.20505,0.447 0.48178,0.13001 1.03779,0.19569 1.6726,0.19569 0.48947,0 1.067,-0.0757 1.73239,-0.22865 0.66539,-0.15295 1.35482,-0.37207 2.06609,-0.65504 0.71126,-0.28295 1.41346,-0.622 2.10933,-1.01965 0.69597,-0.39768 1.31696,-0.84597 1.86,-1.34305 0.55054,-0.49708 0.99223,-1.03315 1.32867,-1.60672 0.34414,-0.5812 0.51699,-1.19296 0.51699,-1.83536 0,-0.49707 -0.12455,-0.96746 -0.37693,-1.41102 -0.24479,-0.45119 -0.65157,-0.84384 -1.2174,-1.18032 -0.4283,-0.24473 -0.93275,-0.46179 -1.51397,-0.65298 -0.57353,-0.19118 -1.17057,-0.3788 -1.79008,-0.56236 -0.61171,-0.19118 -1.21877,-0.39088 -1.82299,-0.59736 -0.59641,-0.2065 -1.13261,-0.44772 -1.60678,-0.72303 -0.47418,-0.27531 -0.8546,-0.59693 -1.14526,-0.96403 -0.29056,-0.37472 -0.43674,-0.82094 -0.43674,-1.34099 0,-0.45884 0.10336,-0.84146 0.30902,-1.14736 0.2065,-0.31354 0.4746,-0.56214 0.80333,-0.74568 0.32885,-0.19119 0.69935,-0.32522 1.11236,-0.40168 0.4129,-0.0842 0.82253,-0.12565 1.22773,-0.12565 0.0991,0 0.25281,0.002 0.45931,0.0106 0.2065,0.008 0.43083,0.0271 0.67562,0.0577 0.25217,0.023 0.50845,0.0618 0.76843,0.11534 0.26767,0.0535 0.50887,0.12659 0.72297,0.21835 0.2142,0.0842 0.3897,0.18927 0.52733,0.31929 0.13764,0.13 0.20809,0.28345 0.20809,0.45935 0,0.13001 -0.0443,0.27345 -0.12772,0.4264 -0.0833,0.15294 -0.22802,0.32378 -0.43463,0.51497 0.36713,-0.22943 0.69133,-0.4412 0.9743,-0.63239 0.29077,-0.19882 0.53651,-0.37231 0.73542,-0.52526 0.22939,-0.16824 0.43178,-0.32642 0.60759,-0.47172 0.2142,-0.18355 0.4071,-0.36175 0.58302,-0.53764 0.18361,-0.18354 0.32694,-0.35643 0.4264,-0.51703 0.0991,-0.16061 0.14828,-0.30403 0.14828,-0.4264 0.0105,-0.12236 -0.057,-0.21279 -0.19363,-0.27396 -0.077,-0.0306 -0.20513,-0.0674 -0.38105,-0.11329 -0.17592,-0.0536 -0.39308,-0.0998 -0.65305,-0.13801 -0.25249,-0.0383 -0.54241,-0.0725 -0.87126,-0.10304 -0.32114,-0.0305 -0.66497,-0.0474 -1.03209,-0.0474 z m -165.38046,0.068 c -0.8489,0 -1.73355,0.10926 -2.65111,0.3234 -0.91007,0.21413 -1.80443,0.52369 -2.68402,0.92901 -0.87168,0.39767 -1.70064,0.88544 -2.48837,1.46665 -0.77993,0.58122 -1.46957,1.23921 -2.06599,1.97337 -0.58882,0.72651 -1.0593,1.53062 -1.41103,2.41008 -0.34414,0.87181 -0.51499,1.80051 -0.51499,2.78702 0,1.12419 0.18762,2.1601 0.56234,3.10839 0.38242,0.94829 0.9163,1.76712 1.60467,2.45538 0.68828,0.68827 1.51176,1.22228 2.46771,1.60466 0.96354,0.39002 2.02622,0.58707 3.18878,0.58707 0.78762,0 1.61638,-0.0971 2.48827,-0.28839 0.87948,-0.19118 1.74462,-0.47393 2.59342,-0.84867 0.8489,-0.37474 1.66035,-0.83569 2.43279,-1.38631 0.77244,-0.55061 1.45027,-1.18387 2.0393,-1.89509 0.58871,-0.71886 1.05667,-1.51354 1.4007,-2.38536 0.35184,-0.87181 0.52733,-1.81995 0.52733,-2.84471 0,-0.71122 -0.0802,-1.40339 -0.24099,-2.07637 -0.15292,-0.67298 -0.38231,-1.30419 -0.68806,-1.89304 -0.29837,-0.59651 -0.66613,-1.13787 -1.10202,-1.62732 -0.43589,-0.49708 -0.93095,-0.92328 -1.48929,-1.27507 -0.55054,-0.35943 -1.15982,-0.63484 -1.8251,-0.82602 -0.66528,-0.19884 -1.37971,-0.29868 -2.14434,-0.29868 z m 65.36241,0.0247 c -0.40542,0 -0.80999,0.0149 -1.21529,0.0453 -0.39761,0.0306 -0.8045,0.0695 -1.2174,0.11535 -0.40531,0.0383 -0.8199,0.0725 -1.2483,0.10304 -0.4283,0.0305 -0.86915,0.0453 -1.32044,0.0453 -0.30575,0 -0.62015,-0.007 -0.94129,-0.0227 -0.31366,-0.0153 -0.61107,-0.0469 -0.89404,-0.0927 l -2.93735,2.1567 c 0.45119,-0.0383 0.91883,-0.0845 1.4007,-0.13801 0.48947,-0.0535 0.98453,-0.10978 1.48929,-0.17096 -0.0454,1.74364 -0.0854,3.28879 -0.1236,4.63475 -0.038,1.34595 -0.0759,2.5259 -0.10547,3.54301 -0.0232,1.01712 -0.0453,1.8869 -0.0675,2.60576 -0.0158,0.71886 -0.0264,1.31856 -0.0348,1.80035 -0.0295,1.13948 -0.0454,1.84639 -0.0454,2.12168 -0.0158,0.24473 0.0105,0.44709 0.0802,0.60768 0.077,0.16059 0.1717,0.28725 0.28634,0.37901 0.11475,0.0995 0.24616,0.16776 0.39139,0.20599 0.15303,0.0383 0.30174,0.0577 0.44697,0.0577 0.48947,0 0.97187,-0.0711 1.44605,-0.21629 0.48166,-0.14529 0.94013,-0.33293 1.37602,-0.56235 0.43579,-0.22178 0.84521,-0.4677 1.22763,-0.73538 0.38991,-0.2752 0.73647,-0.53871 1.04232,-0.791 -0.2065,0.0688 -0.42819,0.12982 -0.66528,0.18333 -0.1988,0.0459 -0.42345,0.0874 -0.67572,0.12565 -0.25249,0.0305 -0.50825,0.0454 -0.76833,0.0454 -0.25997,0 -0.5133,-0.0247 -0.75798,-0.0783 -0.24479,-0.0535 -0.45446,-0.14603 -0.63038,-0.27603 l 0.44697,-13.92692 c 0.22169,-0.0153 0.4437,-0.0253 0.66539,-0.0329 0.22939,-0.008 0.45603,-0.0123 0.67773,-0.0123 0.3976,0 0.795,0.0343 1.19261,0.10304 0.40541,0.0613 0.79532,0.16105 1.17004,0.29869 0.37473,0.13002 0.72129,0.3029 1.04233,0.51703 0.32895,0.20648 0.61635,0.45508 0.86103,0.74568 0.24468,0.29059 0.43695,0.62226 0.57468,0.99699 0.13764,0.37474 0.20598,0.79417 0.20598,1.26066 0,0.66533 -0.11443,1.28916 -0.34393,1.87038 -0.22939,0.57357 -0.55116,1.09018 -0.96406,1.54904 -0.41312,0.45119 -0.9028,0.83852 -1.46873,1.15971 -0.56593,0.32119 -1.18228,0.55771 -1.84767,0.71066 l 0.34604,0.22865 c 0.50487,-0.0153 1.0361,-0.12517 1.59433,-0.33164 0.55824,-0.20648 1.10434,-0.47924 1.63969,-0.81572 0.54294,-0.33649 1.05962,-0.72913 1.54899,-1.18031 0.48957,-0.45121 0.91618,-0.93368 1.28331,-1.44605 0.37462,-0.51237 0.67161,-1.04109 0.88582,-1.58406 0.22169,-0.55062 0.33158,-1.09671 0.33158,-1.63967 0,-0.71886 -0.1582,-1.33798 -0.47164,-1.85802 -0.31366,-0.52768 -0.72561,-0.95919 -1.23807,-1.29567 -0.50477,-0.34415 -1.07745,-0.59745 -1.71995,-0.75804 -0.6424,-0.16824 -1.29302,-0.25131 -1.95071,-0.25131 z m 11.09253,0.0227 c -0.42819,0 -0.84025,0.0463 -1.23796,0.13802 -0.39761,0.084 -0.79237,0.20606 -1.18238,0.36666 -0.38232,0.16058 -0.76295,0.35088 -1.14537,0.57265 -0.37472,0.21413 -0.75925,0.45066 -1.14937,0.71067 0.28296,-0.0688 0.5731,-0.12773 0.87136,-0.18128 0.30596,-0.0536 0.60274,-0.0824 0.88571,-0.0824 0.34403,0 0.62963,0.0584 0.85902,0.17303 0.23709,0.10706 0.35163,0.29468 0.34393,0.56235 -0.0105,0.12237 -0.0148,0.39306 -0.0232,0.81366 -0.0105,0.42061 -0.0148,0.94194 -0.0232,1.56139 -0.0105,0.61946 -0.0148,1.30692 -0.0221,2.06402 -0.0105,0.75709 -0.0148,1.53439 -0.0232,2.32973 -0.0105,0.79533 -0.0148,1.58266 -0.0232,2.36269 -0.0105,0.77241 -0.0169,1.48666 -0.0243,2.14436 0,0.65002 5.3e-4,1.21289 -0.0105,1.68705 v 0.98462 c 0,0.38238 0.038,0.68194 0.11538,0.89606 0.0759,0.21412 0.191,0.37024 0.34403,0.46965 0.15292,0.0994 0.34065,0.15037 0.56234,0.15037 0.2295,0.008 0.49274,-0.004 0.791,-0.035 0.29826,-0.0305 0.62257,-0.1063 0.9743,-0.22865 0.35933,-0.11473 0.73932,-0.26817 1.13704,-0.45936 0.4053,-0.19118 0.82485,-0.41297 1.26074,-0.66535 0.436,-0.26 0.87928,-0.54277 1.33067,-0.84867 -0.0991,0.023 -0.21874,0.045 -0.35637,0.0679 -0.12234,0.0153 -0.27105,0.0301 -0.44697,0.0453 -0.16832,0.0153 -0.36122,0.0227 -0.58301,0.0227 -0.26757,0 -0.57448,-0.0105 -0.91872,-0.0329 -0.33634,-0.0305 -0.71169,-0.0889 -1.1247,-0.17303 v -4.66772 c 0.0105,-1.36126 0.0105,-2.55532 0.0105,-3.58009 0.0106,-1.03241 0.0148,-1.91014 0.0148,-2.63666 0.0105,-0.7265 0.0105,-1.33562 0.0105,-1.82506 0.0105,-1.14713 0.0105,-1.86876 0.0105,-2.16701 0,-0.0995 -0.0348,-0.18455 -0.10336,-0.25336 -0.0612,-0.0688 -0.15092,-0.12244 -0.26567,-0.16068 -0.10705,-0.0459 -0.23635,-0.0753 -0.38938,-0.0906 -0.14523,-0.023 -0.30142,-0.035 -0.46964,-0.035 z m -79.29958,1.47901 c 1.07818,0 2.06313,0.20235 2.95791,0.60767 0.89467,0.4053 1.66458,0.95875 2.30708,1.66233 0.64229,0.69592 1.13956,1.51681 1.4914,2.45745 0.35173,0.94063 0.52733,1.94974 0.52733,3.02804 0,0.51237 -0.0464,1.03901 -0.13806,1.58199 -0.0918,0.53532 -0.23044,1.05933 -0.41395,1.57171 -0.18362,0.51237 -0.42018,0.99749 -0.71074,1.45634 -0.28297,0.45119 -0.6193,0.85061 -1.00931,1.19474 -0.39002,0.3365 -0.83171,0.60453 -1.32867,0.80335 -0.49717,0.19885 -1.05266,0.29663 -1.66437,0.29663 -1.12416,0 -2.16733,-0.19234 -3.13098,-0.57471 -0.96365,-0.39002 -1.80189,-0.9314 -2.51305,-1.62731 -0.70357,-0.69593 -1.25906,-1.52476 -1.66447,-2.48836 -0.40521,-0.96358 -0.6076,-2.02365 -0.6076,-3.17841 0,-0.91771 0.11939,-1.78543 0.35627,-2.6037 0.24479,-0.82594 0.61265,-1.54962 1.10212,-2.16907 0.48937,-0.61944 1.09917,-1.10927 1.83333,-1.4687 0.74185,-0.36709 1.61152,-0.54999 2.60576,-0.54999 z m 112.54419,2.21439 c 0.0918,0.32883 0.21357,0.72353 0.3666,1.18237 0.16063,0.45885 0.33623,0.95397 0.52733,1.4893 0.19881,0.53533 0.40869,1.10291 0.63038,1.69941 0.22939,0.58885 0.46595,1.18119 0.71063,1.77768 -0.69587,0.0612 -1.47115,0.11475 -2.32764,0.16068 -0.8565,0.0459 -1.79736,0.08 -2.82208,0.10304 0.436,-1.01712 0.89425,-2.043 1.37603,-3.07541 0.48177,-1.04006 0.9957,-2.15166 1.53875,-3.33702 z"
       style="display:inline;overflow:visible;vector-effect:none;fill:url(#linearGradient7-8);stroke-width:0.779734;stroke-linecap:round;stroke-linejoin:bevel;enable-background:accumulate;stop-color:#000000"
       id="path100" /></g></svg>
